<mxfile host="app.diagrams.net" modified="2020-09-03T14:31:36.309Z" agent="5.0 (Windows NT 10.0; Win64; x64) AppleWebKit/537.36 (KHTML, like Gecko) Chrome/85.0.4183.83 Safari/537.36" etag="P_WJZhRA-vW9dTYEhG3h" version="13.6.6" type="github">
  <diagram id="UlvshiNZmsIX7mpI2fsG" name="Page-1">
    <mxGraphModel dx="1038" dy="556" grid="1" gridSize="10" guides="1" tooltips="1" connect="1" arrows="1" fold="1" page="1" pageScale="1" pageWidth="827" pageHeight="1169" math="0" shadow="0">
      <root>
        <mxCell id="0" />
        <mxCell id="1" parent="0" />
        <mxCell id="PLdnTBZpeGYFDVyv8NKy-1" value="MaterialApp()" style="rounded=0;whiteSpace=wrap;html=1;" vertex="1" parent="1">
          <mxGeometry x="360" y="10" width="120" height="60" as="geometry" />
        </mxCell>
        <mxCell id="PLdnTBZpeGYFDVyv8NKy-2" value="runApp(Scaffold)" style="rounded=0;whiteSpace=wrap;html=1;" vertex="1" parent="1">
          <mxGeometry x="360" y="150" width="120" height="60" as="geometry" />
        </mxCell>
        <mxCell id="PLdnTBZpeGYFDVyv8NKy-3" value="AppBar()" style="rounded=0;whiteSpace=wrap;html=1;" vertex="1" parent="1">
          <mxGeometry x="200" y="280" width="120" height="60" as="geometry" />
        </mxCell>
        <mxCell id="PLdnTBZpeGYFDVyv8NKy-4" value="" style="endArrow=classic;startArrow=classic;html=1;" edge="1" parent="1">
          <mxGeometry width="50" height="50" relative="1" as="geometry">
            <mxPoint x="310" y="270" as="sourcePoint" />
            <mxPoint x="390" y="220" as="targetPoint" />
          </mxGeometry>
        </mxCell>
        <mxCell id="PLdnTBZpeGYFDVyv8NKy-5" value="Text(&quot;İlk Uygulama&quot;)" style="rounded=0;whiteSpace=wrap;html=1;" vertex="1" parent="1">
          <mxGeometry x="200" y="410" width="120" height="60" as="geometry" />
        </mxCell>
        <mxCell id="PLdnTBZpeGYFDVyv8NKy-6" value="" style="endArrow=classic;startArrow=classic;html=1;" edge="1" parent="1">
          <mxGeometry width="50" height="50" relative="1" as="geometry">
            <mxPoint x="259.5" y="405" as="sourcePoint" />
            <mxPoint x="259.5" y="345" as="targetPoint" />
          </mxGeometry>
        </mxCell>
        <mxCell id="PLdnTBZpeGYFDVyv8NKy-7" value="" style="endArrow=classic;startArrow=classic;html=1;" edge="1" parent="1">
          <mxGeometry width="50" height="50" relative="1" as="geometry">
            <mxPoint x="419.5" y="144" as="sourcePoint" />
            <mxPoint x="419.5" y="74" as="targetPoint" />
          </mxGeometry>
        </mxCell>
        <mxCell id="PLdnTBZpeGYFDVyv8NKy-9" value="Body()" style="rounded=0;whiteSpace=wrap;html=1;" vertex="1" parent="1">
          <mxGeometry x="520" y="280" width="120" height="60" as="geometry" />
        </mxCell>
        <mxCell id="PLdnTBZpeGYFDVyv8NKy-10" value="Child()" style="rounded=0;whiteSpace=wrap;html=1;" vertex="1" parent="1">
          <mxGeometry x="520" y="410" width="120" height="60" as="geometry" />
        </mxCell>
        <mxCell id="PLdnTBZpeGYFDVyv8NKy-11" value="Text(&quot;Gövde Yapısı)" style="rounded=0;whiteSpace=wrap;html=1;" vertex="1" parent="1">
          <mxGeometry x="520" y="530" width="120" height="60" as="geometry" />
        </mxCell>
        <mxCell id="PLdnTBZpeGYFDVyv8NKy-12" value="" style="endArrow=classic;startArrow=classic;html=1;" edge="1" parent="1">
          <mxGeometry width="50" height="50" relative="1" as="geometry">
            <mxPoint x="520" y="270" as="sourcePoint" />
            <mxPoint x="450" y="220" as="targetPoint" />
          </mxGeometry>
        </mxCell>
        <mxCell id="PLdnTBZpeGYFDVyv8NKy-13" value="" style="endArrow=classic;startArrow=classic;html=1;" edge="1" parent="1">
          <mxGeometry width="50" height="50" relative="1" as="geometry">
            <mxPoint x="579.5" y="404" as="sourcePoint" />
            <mxPoint x="579.5" y="344" as="targetPoint" />
          </mxGeometry>
        </mxCell>
        <mxCell id="PLdnTBZpeGYFDVyv8NKy-14" value="" style="endArrow=classic;startArrow=classic;html=1;" edge="1" parent="1">
          <mxGeometry width="50" height="50" relative="1" as="geometry">
            <mxPoint x="579.5" y="530" as="sourcePoint" />
            <mxPoint x="579.5" y="470" as="targetPoint" />
          </mxGeometry>
        </mxCell>
      </root>
    </mxGraphModel>
  </diagram>
</mxfile>
